<svg xmlns="http://www.w3.org/2000/svg" viewBox="0 0 127.56 64.83"><defs><style>.cls-1,.cls-2{fill:#1d1d1b;}.cls-2{font-size:10px;font-family:esamanruBold, esamanru;font-weight:700;letter-spacing:0.18em;}</style></defs><title>Asset 5</title><g id="Layer_2" data-name="Layer 2"><g id="Layer_1-2" data-name="Layer 1"><polygon class="cls-1" points="43.74 33.61 60.18 33.61 60.18 41.01 60.18 41.01 60.18 49.75 68.7 43.94 68.71 43.94 68.71 33.61 85.73 33.61 85.73 25.09 43.74 25.09 43.74 33.61"/><path class="cls-1" d="M13.34,2c-.17,0-.34,0-.51,0C6.3,1.88.94,6.69.94,15.21V36.27a15.83,15.83,0,0,0,1.23,6.35h0L0,49.52l12.73,0h.66c6.26-.18,11.33-4.94,11.33-13.26V15.21A15.85,15.85,0,0,0,23.47,8.8l2.07-6.72Zm2.9,34c0,2.47-1.51,3.87-3.41,3.87S9.41,38.46,9.41,36V15.49c0-2.47,1.52-3.87,3.42-3.87s3.41,1.4,3.41,3.87Z"/><rect class="cls-1" x="28.23" y="2.1" width="8.48" height="47.6"/><path class="cls-1" d="M89.25,2.12v8.65h14.2V21.09a17.13,17.13,0,0,1-1.77,8,158.8,158.8,0,0,1-13,20.61l11.84,0a149.43,149.43,0,0,0,8.67-14.59A26.55,26.55,0,0,0,112,22.88V0l-4.66,2.12Z"/><path class="cls-1" d="M85.73,16.81V2.1H40.23l3.51,4.56V21.39H89.27ZM75.31,14.13H54.16V9.37H75.31Z"/><polygon class="cls-1" points="127.56 2.15 123.96 2.15 118.18 2.15 115.49 2.15 115.49 49.76 123.96 49.76 123.96 6.81 127.56 2.15"/><text class="cls-2" transform="translate(18.58 61.75)">복합문화예술공간</text></g></g></svg>