<?xml version="1.0" encoding="utf-8"?>
<!-- Generator: Adobe Illustrator 22.1.0, SVG Export Plug-In . SVG Version: 6.00 Build 0)  -->
<svg version="1.1" id="Layer_1" xmlns="http://www.w3.org/2000/svg" xmlns:xlink="http://www.w3.org/1999/xlink" x="0px" y="0px"
	 viewBox="0 0 127.6 64.8" style="enable-background:new 0 0 127.6 64.8;" xml:space="preserve">
<style type="text/css">
	.st0{fill:#F9F9F9;}
	.st1{font-family:'esamanruBold';}
	.st2{font-size:10px;}
	.st3{letter-spacing:1;}
</style>
<title>Asset 5</title>
<g id="Layer_2_1_">
	<g id="Layer_1-2">
		<polygon class="st0" points="43.7,33.6 60.2,33.6 60.2,41 60.2,41 60.2,49.8 68.7,43.9 68.7,43.9 68.7,33.6 85.7,33.6 85.7,25.1 
			43.7,25.1 		"/>
		<path class="st0" d="M13.3,2c-0.2,0-0.3,0-0.5,0C6.3,1.9,0.9,6.7,0.9,15.2v21.1c0,2.2,0.4,4.3,1.2,6.3l0,0L0,49.5h12.7h0.7
			c6.3-0.2,11.3-4.9,11.3-13.3V15.2c0-2.2-0.4-4.4-1.3-6.4l2.1-6.7L13.3,2z M16.2,36c0,2.5-1.5,3.9-3.4,3.9S9.4,38.5,9.4,36V15.5
			c0-2.5,1.5-3.9,3.4-3.9s3.4,1.4,3.4,3.9V36z"/>
		<rect x="28.2" y="2.1" class="st0" width="8.5" height="47.6"/>
		<path class="st0" d="M89.3,2.1v8.6h14.2v10.3c0.1,2.8-0.5,5.5-1.8,8c-3.8,7.2-8.1,14.1-13,20.6h11.8c3.2-4.7,6.1-9.6,8.7-14.6
			c1.9-3.8,2.9-8,2.8-12.2V0l-4.7,2.1H89.3z"/>
		<path class="st0" d="M85.7,16.8V2.1H40.2l3.5,4.6v14.7h45.5L85.7,16.8z M75.3,14.1H54.2V9.4h21.1V14.1z"/>
		<polygon class="st0" points="127.6,2.2 124,2.2 118.2,2.2 115.5,2.2 115.5,49.8 124,49.8 124,6.8 		"/>
		<text transform="matrix(1 0 0 1 18.58 61.75)" class="st0 st1 st2 st3">복합문화예술공간</text>
	</g>
</g>
</svg>
